<svg width="257" height="60" viewBox="0 0 257 60" fill="none" xmlns="http://www.w3.org/2000/svg">
<rect width="257" height="60" fill="#343434" />
<path d="M19.9214 50.8016L29.1032 47.1366L33.6941 49.8854L29.5662 56.3956C29.2768 56.9068 28.7367 57.225 28.158 57.225H24.5991C23.9915 57.225 23.4321 56.8778 23.1524 56.3377L19.9214 50.8016Z" fill="url(#paint0_linear_2_396)"/>
<path d="M5.33325 43.3354L10.7536 36.1211L16.2608 42.5542L7.99521 48.9776L5.33325 43.3354Z" fill="url(#paint1_linear_2_396)"/>
<path d="M48.6541 25.4353L37.3697 12.2605L21.0508 12.2509L37.1865 30.0165L47.7089 41.5999L53.9973 33.5079C54.4699 32.9003 54.4506 32.0323 53.9395 31.4536L48.6541 25.4353Z" fill="url(#paint2_linear_2_396)"/>
<path d="M53.0943 45.8719L48.1755 55.0055C47.7704 55.7481 46.8638 56.0568 46.0922 55.7095L2.47852 35.0408L10.7441 23.2742L52.3806 43.6536C53.2004 44.049 53.5283 45.0617 53.0943 45.8719Z" fill="url(#paint3_linear_2_396)"/>
<path d="M48.6664 25.4349L37.1988 30.0162L6.05582 42.7666C5.14921 43.1427 4.77307 44.2326 5.2746 45.0813L10.097 53.3469C10.4828 54.0124 11.2833 54.3114 12.0163 54.0606L48.406 41.6382L54.1061 33.498C54.5305 32.8903 54.4919 32.0609 54 31.5015L48.6664 25.4349Z" fill="url(#paint4_linear_2_396)"/>
<path d="M1.7607 34.1934L0.101795 29.7761C-0.120035 29.1685 0.024637 28.4933 0.497231 28.0497L25.3132 4.11134C26.9914 2.49102 29.692 2.66463 31.1483 4.48749L37.3692 12.2612L4.19118 34.965C3.32315 35.5533 2.1272 35.1772 1.7607 34.1934Z" fill="url(#paint5_linear_2_396)"/>
<path d="M44.7888 15.0294C44.7888 12.8689 43.0334 11.1136 40.873 11.1136H13.4529C11.2925 11.1136 9.53711 12.8689 9.53711 15.0294V28.7442V42.4591C9.53711 44.6195 11.2925 46.3749 13.4529 46.3749H40.8826C43.0431 46.3749 44.7984 44.6195 44.7984 42.4591V28.7442V15.0294H44.7888Z" fill="#2B2B2B"/>
<path d="M36.3916 35.6598C35.7068 34.5603 34.8677 32.9786 33.0449 31.5222C32.0708 30.741 32.0418 29.2846 32.987 28.4648C32.9967 28.4552 33.0063 28.4552 33.0063 28.4455C37.1536 24.8287 36.7678 18.3764 30.4697 16.6114C24.0752 14.8175 18.7031 18.2317 17.4879 23.4978C16.5716 27.4907 16.697 29.9791 16.8899 32.4674C17.5457 40.9259 18.5777 41.7746 21.8473 41.2442C25.1169 40.7137 23.294 37.8106 22.7346 36.036C21.9823 33.6441 21.9727 32.3613 23.5351 32.2649C25.5605 32.1298 29.3992 33.5283 30.6337 37.6659C31.9357 42.035 34.0383 41.5142 36.0058 41.1188C37.9734 40.704 38.0023 38.2253 36.3916 35.6598ZM23.8148 27.7897C22.7828 27.5775 22.2813 26.5744 22.3971 23.9221C22.4935 21.8292 24.1813 20.4114 26.5057 20.5754C28.888 20.749 30.7398 21.5109 30.7494 23.5171C30.7591 25.311 28.29 27.0085 26.2164 27.5196C25.2423 27.7704 24.4417 27.9151 23.8148 27.7897Z" fill="white"/>
<path d="M33.1603 16.3919L32.376 15.6077L23.5443 24.4393L24.3286 25.2236L33.1603 16.3919Z" fill="#2B2B2B"/>
<path d="M34.5406 17.7723L33.7563 16.988L25.8317 24.9127L26.616 25.6969L34.5406 17.7723Z" fill="#2B2B2B"/>
<path d="M35.921 19.1527L35.1367 18.3684L28.6988 24.8063L29.4831 25.5906L35.921 19.1527Z" fill="#2B2B2B"/>
<path d="M37.3014 20.5252L36.5171 19.741L22.5228 33.7352L23.3071 34.5195L37.3014 20.5252Z" fill="#2B2B2B"/>
<path d="M38.6817 21.9056L37.8975 21.1213L23.9032 35.1156L24.6875 35.8999L38.6817 21.9056Z" fill="#2B2B2B"/>
<path d="M40.0621 23.286L39.2778 22.5017L25.2836 36.496L26.0678 37.2803L40.0621 23.286Z" fill="#2B2B2B"/>
<path d="M41.4425 24.6624L40.6582 23.8781L25.2181 39.3182L26.0024 40.1025L41.4425 24.6624Z" fill="#2B2B2B"/>
<path d="M42.7914 26.0428L42.0071 25.2585L26.567 40.6986L27.3513 41.4828L42.7914 26.0428Z" fill="#2B2B2B"/>
<path d="M44.1717 27.4192L43.3875 26.6349L27.9474 42.075L28.7317 42.8593L44.1717 27.4192Z" fill="#2B2B2B"/>
<path d="M41.9757 32.3917L41.1914 31.6074L30.3888 42.41L31.1731 43.1943L41.9757 32.3917Z" fill="#2B2B2B"/>
<path d="M43.3561 33.7721L42.5718 32.9878L31.7692 43.7904L32.5535 44.5747L43.3561 33.7721Z" fill="#2B2B2B"/>
<path d="M75.9314 16.9087C75.5745 16.9665 75.0441 17.0148 74.3304 17.063C73.6167 17.1112 72.8065 17.1401 71.8999 17.1498C70.9933 17.1594 70.0384 17.1691 69.0354 17.1787C68.0323 17.1884 67.0871 17.1884 66.1902 17.1884L66.1034 20.0818C66.0648 20.863 66.0262 21.6346 65.978 22.3676C65.9298 23.1102 65.8912 23.8432 65.8526 24.5666C65.8333 25.0681 65.5922 25.3285 65.1196 25.3285H62.149C61.6957 25.3285 61.4546 25.0681 61.416 24.5473C61.3389 22.8981 61.2906 21.4128 61.2714 20.0721C61.2521 18.7315 61.2521 17.3813 61.2617 16.0213C61.2713 14.6518 61.3003 13.1954 61.3582 11.6426C61.416 10.0898 61.4835 8.27658 61.551 6.19331C61.6668 5.71107 61.8983 5.46031 62.2551 5.46031H62.3709C62.5252 5.44102 62.7181 5.43138 62.9785 5.42173C63.2292 5.41209 63.4993 5.38315 63.779 5.32528C64.6181 5.26741 65.6308 5.21919 66.8075 5.18061C67.9841 5.14203 69.1608 5.12274 70.3278 5.12274C71.4948 5.12274 72.5847 5.14203 73.5877 5.18061C74.5908 5.21919 75.3431 5.27706 75.8446 5.34457C76.0472 5.38315 76.1629 5.49889 76.1822 5.71107V7.44713C76.1822 7.58216 76.1629 7.65932 76.1243 7.68825C76.0857 7.71719 76.0182 7.74612 75.9314 7.7847C75.5745 7.86186 75.0441 7.91973 74.3304 7.94866C73.6167 7.98724 72.8065 8.01618 71.8999 8.03546C70.9933 8.05475 70.0384 8.0644 69.0354 8.07404C68.0323 8.08369 67.0871 8.08369 66.1902 8.08369H66.0744L66.1613 10.6974C66.1805 11.2954 66.1902 11.8934 66.1902 12.4817C66.1902 13.07 66.1902 13.668 66.1902 14.266C66.6242 14.2467 67.0679 14.2371 67.5212 14.2371C67.9841 14.2371 68.4471 14.2274 68.91 14.2081C69.6044 14.2081 70.2989 14.2081 71.0029 14.2081C71.707 14.2081 72.3628 14.2178 72.9801 14.2371C73.5974 14.2563 74.1568 14.2853 74.6487 14.3239C75.1405 14.3624 75.5456 14.401 75.8446 14.4396C76.0472 14.4589 76.1629 14.5746 76.1822 14.7772V16.5422C76.1822 16.6579 76.1629 16.735 76.1243 16.7833C76.0954 16.8315 76.0279 16.8797 75.9314 16.9087Z" fill="url(#paint6_linear_2_396)"/>
<path d="M92.8367 24.9911C92.7016 25.0682 92.557 25.0779 92.3834 25.0296C92.2194 24.9814 92.0747 24.8753 91.959 24.7114C91.5057 23.9301 91.1102 23.1682 90.7534 22.4545C90.3965 21.7311 90.0493 21.0271 89.7118 20.3326C89.5092 20.3519 89.297 20.3616 89.0849 20.3616C88.8727 20.3616 88.6508 20.3616 88.429 20.3616C87.7539 20.3809 87.0402 20.4002 86.2975 20.4194C85.5452 20.4387 84.8315 20.4484 84.1371 20.4484H82.6518C82.3335 21.1621 81.9863 21.8662 81.6005 22.5799C81.2147 23.2936 80.8193 24.0073 80.4046 24.7403C80.1827 25.0972 79.8934 25.1936 79.5365 25.02L77.2603 23.9301C77.0964 23.8144 76.9614 23.6987 76.8649 23.5829C76.7685 23.4575 76.7588 23.3129 76.836 23.1489C77.3375 21.9144 77.9548 20.5062 78.6781 18.9341C79.4015 17.362 80.1538 15.7803 80.9543 14.1889C81.7452 12.5975 82.5457 11.0833 83.3366 9.64623C84.1274 8.20916 84.8797 7.00356 85.5645 6.02944C85.7478 5.74974 85.9696 5.58578 86.2203 5.55684C86.4711 5.51827 86.6929 5.58578 86.8762 5.74974V5.77868C87.0305 5.85583 87.127 5.95228 87.1848 6.08731C87.9564 7.04214 88.7183 8.23809 89.4899 9.66552C90.2615 11.0929 91.0042 12.6072 91.7372 14.1793C92.4702 15.761 93.1549 17.3331 93.8108 18.9052C94.4666 20.4773 95.0357 21.8758 95.5276 23.1103C95.5854 23.2743 95.5661 23.4286 95.489 23.5636C95.4022 23.6987 95.2864 23.7951 95.1418 23.8723L92.8367 24.9911ZM83.9152 17.8154H84.0599C84.7158 17.8154 85.4102 17.7961 86.1528 17.7478C86.8955 17.6996 87.5899 17.6803 88.2457 17.6803H88.5833L87.966 16.224C87.6864 15.5488 87.4259 14.893 87.1945 14.2564C86.963 13.6199 86.7315 12.9833 86.5097 12.3468L86.394 12.096C86.1335 12.7326 85.8635 13.3788 85.5838 14.0442C85.3041 14.7097 85.0244 15.3656 84.7447 16.0214L83.9152 17.8154Z" fill="url(#paint7_linear_2_396)"/>
<path d="M98.2793 19.7464C98.5976 19.6113 98.8097 19.6789 98.9255 19.9393C99.2245 20.5372 99.6102 21.0291 100.092 21.4149C100.565 21.8007 101.067 22.09 101.597 22.2829C102.118 22.4758 102.658 22.5819 103.198 22.5819C103.738 22.5819 104.24 22.4855 104.683 22.2829C105.137 22.09 105.494 21.8007 105.773 21.4246C106.053 21.0484 106.227 20.5758 106.275 19.9971C106.294 19.621 106.246 19.2931 106.13 19.0134C106.014 18.7337 105.773 18.4443 105.387 18.1453C105.002 17.8463 104.452 17.5281 103.748 17.1905C103.034 16.8529 102.079 16.4479 100.883 15.9849C99.7646 15.5316 98.9158 14.9626 98.3564 14.2681C97.797 13.5737 97.5173 12.6092 97.5173 11.3747C97.5173 10.2945 97.7585 9.36859 98.2311 8.60665C98.7036 7.84471 99.3113 7.23709 100.054 6.78379C100.797 6.32084 101.626 6.01221 102.552 5.84825C103.478 5.68428 104.394 5.64571 105.301 5.73251C106.207 5.82896 107.056 6.05079 107.837 6.41729C108.628 6.78379 109.245 7.26603 109.718 7.864L109.94 8.20157C109.998 8.25944 110.007 8.35589 109.969 8.48127L108.705 9.8026C108.628 9.91834 108.522 10.0051 108.387 10.0727C108.242 10.1402 108.127 10.1209 108.04 10.0341C107.741 9.61935 107.249 9.27214 106.564 8.99244C105.879 8.71274 105.195 8.57772 104.5 8.58736C103.806 8.59701 103.198 8.7899 102.658 9.16605C102.128 9.54219 101.857 10.1691 101.857 11.0468C101.857 11.5194 102.041 11.9245 102.407 12.2813C102.774 12.6382 103.343 12.9854 104.134 13.3229C104.751 13.6219 105.484 13.9113 106.333 14.1813C107.181 14.4514 108.001 14.8275 108.773 15.3194C109.544 15.8017 110.181 16.4382 110.663 17.2291C111.145 18.0103 111.358 19.0423 111.28 20.3154C111.203 21.4149 110.846 22.3697 110.2 23.1606C109.554 23.9515 108.753 24.5784 107.799 25.0317C106.844 25.485 105.793 25.7454 104.654 25.8129C103.516 25.8901 102.398 25.7647 101.317 25.4368C100.228 25.1089 99.2437 24.5688 98.3564 23.8261C97.4691 23.0738 96.794 22.0997 96.3503 20.8748C96.2346 20.5758 96.3117 20.3926 96.5721 20.3154L98.2793 19.7464Z" fill="url(#paint8_linear_2_396)"/>
<path d="M128.069 8.51917C127.654 8.57704 127.027 8.61562 126.188 8.64455C125.349 8.67348 124.404 8.70242 123.353 8.741C123.189 8.741 123.034 8.741 122.89 8.741C122.745 8.741 122.591 8.76029 122.427 8.79887C122.504 9.99482 122.552 11.2101 122.571 12.4349C122.591 13.6598 122.591 14.9233 122.571 16.2061C122.552 17.6817 122.523 19.1188 122.475 20.498C122.427 21.8868 122.349 23.2564 122.234 24.6259C122.214 25.0985 121.983 25.33 121.53 25.33H118.53C118.328 25.33 118.154 25.2625 118.029 25.1371C117.894 25.0021 117.826 24.8381 117.807 24.6356C117.768 23.4975 117.739 22.4366 117.71 21.4625C117.681 20.4883 117.672 19.5431 117.672 18.6172C117.672 17.6913 117.681 16.7558 117.701 15.8106C117.72 14.8654 117.749 13.8431 117.788 12.7339C117.807 12.1745 117.816 11.5573 117.826 10.8918C117.836 10.2263 117.855 9.54151 117.894 8.8278H116.688C115.637 8.8278 114.692 8.80851 113.843 8.76029C112.994 8.71206 112.348 8.67348 111.923 8.6349C111.788 8.6349 111.731 8.51917 111.731 8.29734L111.702 6.53235C111.702 6.41661 111.731 6.33945 111.798 6.29123C111.866 6.243 111.933 6.21407 112.01 6.19478C112.425 6.13691 113.033 6.07904 113.852 6.03082C114.663 5.97295 115.589 5.93437 116.62 5.90543C117.652 5.8765 118.733 5.85721 119.861 5.84757C120.99 5.83792 122.079 5.83792 123.131 5.84757C124.182 5.85721 125.137 5.8765 126.005 5.90543C126.873 5.93437 127.548 5.98259 128.04 6.05975C128.281 6.09833 128.406 6.22371 128.406 6.42625V8.14302C128.406 8.27805 128.387 8.35521 128.339 8.39379C128.262 8.42272 128.185 8.47095 128.069 8.51917Z" fill="url(#paint9_linear_2_396)"/>
<path d="M149.05 6.38597C150.004 6.85856 150.757 7.50476 151.306 8.3535C151.856 9.19259 152.203 10.0992 152.329 11.0733C152.464 12.0474 152.367 13.0119 152.049 13.9668C151.731 14.9216 151.162 15.7221 150.332 16.3779C149.995 16.6384 149.628 16.8602 149.242 17.0531L150.641 19.2135C151.104 19.9658 151.538 20.7181 151.933 21.4704C152.329 22.2323 152.695 22.975 153.023 23.6983C153.177 23.9587 153.052 24.1999 152.657 24.4313L150.217 25.9166C149.802 26.1385 149.532 26.1481 149.406 25.9456C148.992 25.3862 148.625 24.8654 148.288 24.3831C147.95 23.9105 147.641 23.4283 147.362 22.9557C147.082 22.4831 146.793 22.0009 146.503 21.509C146.214 21.0267 145.896 20.4963 145.568 19.9369C145.404 19.6379 145.23 19.3196 145.066 19.0013C144.902 18.6734 144.709 18.3262 144.507 17.9501C144.343 17.9693 144.169 17.979 144.005 17.979C143.841 17.979 143.668 17.979 143.504 17.979C143.166 17.9983 142.838 18.0079 142.51 18.0079C142.182 18.0079 141.855 18.0079 141.517 18.0079L141.459 20.477C141.44 21.2582 141.401 22.0298 141.343 22.7628C141.285 23.5054 141.237 24.2384 141.199 24.9618C141.179 25.4633 140.938 25.7237 140.466 25.7237H137.495C137.293 25.7237 137.119 25.6466 136.994 25.5019C136.859 25.3476 136.791 25.1643 136.772 24.9425C136.695 23.2933 136.646 21.808 136.627 20.4673C136.608 19.1267 136.608 17.7861 136.617 16.4262C136.627 15.0663 136.656 13.6195 136.714 12.0667C136.772 10.5139 136.839 8.69107 136.907 6.59815C136.945 6.35703 137.023 6.18343 137.129 6.09662L137.244 5.98088L137.389 5.89408C137.447 5.89408 137.495 5.88444 137.534 5.86515H137.563L138.546 5.77835C139.26 5.70119 140.109 5.64332 141.102 5.61438C142.096 5.5758 143.099 5.5758 144.121 5.61438C145.143 5.65296 146.098 5.73012 146.995 5.8555C147.873 5.9616 148.567 6.14485 149.05 6.38597ZM141.498 11.1023C141.536 11.8738 141.556 12.6261 141.556 13.3591C141.556 14.1018 141.546 14.8541 141.527 15.616H142.481C143.099 15.616 143.726 15.5774 144.362 15.4906C144.999 15.4038 145.558 15.2688 146.05 15.0856C146.388 14.9312 146.667 14.6901 146.879 14.3429C147.092 13.9957 147.246 13.5906 147.342 13.118C147.439 12.6551 147.468 12.1632 147.439 11.6424C147.41 11.1312 147.323 10.649 147.169 10.1957C147.014 9.74235 146.793 9.35656 146.494 9.02863C146.195 8.70071 145.838 8.47888 145.423 8.37279C144.864 8.23776 144.15 8.17989 143.292 8.17989C142.954 8.17989 142.636 8.18954 142.327 8.18954C142.019 8.19918 141.71 8.20883 141.411 8.22812L141.498 11.1023Z" fill="#087CFA"/>
<path d="M168.363 16.5232C168.006 16.581 167.476 16.6293 166.762 16.6678C166.048 16.7064 165.248 16.7354 164.351 16.7546C163.454 16.7739 162.509 16.7932 161.515 16.8125C160.522 16.8318 159.567 16.8414 158.651 16.8414H158.622L158.535 20.1014L158.39 22.5704H158.67C159.606 22.5704 160.58 22.5704 161.593 22.5608C162.605 22.5512 163.579 22.5512 164.525 22.5608C165.47 22.5704 166.328 22.5801 167.09 22.5994C167.862 22.6187 168.46 22.6669 168.884 22.744C169.087 22.7633 169.193 22.8887 169.193 23.1106L169.222 24.8755C169.222 25.0299 169.115 25.136 168.913 25.2131C168.44 25.2903 167.698 25.3578 166.666 25.406C165.634 25.4639 164.496 25.5025 163.251 25.5314C162.007 25.5603 160.753 25.57 159.48 25.5603C158.207 25.5507 157.108 25.5121 156.172 25.4349L154.716 25.3481H154.571C154.118 25.3481 153.877 25.0877 153.838 24.5669C153.761 22.9177 153.713 21.4324 153.693 20.0917C153.674 18.7511 153.674 17.4008 153.684 16.0409C153.693 14.6714 153.722 13.215 153.78 11.6622C153.838 10.1094 153.906 8.29618 153.973 6.2129C154.089 5.73067 154.33 5.4799 154.706 5.4799H154.793C154.947 5.46061 155.14 5.45097 155.401 5.44132C155.651 5.43168 155.921 5.40274 156.201 5.34487C157.04 5.28701 158.053 5.23878 159.23 5.2002C160.406 5.16162 161.583 5.14233 162.75 5.14233C163.917 5.14233 165.007 5.16162 166.01 5.2002C167.013 5.23878 167.765 5.29665 168.267 5.36416C168.489 5.42203 168.604 5.53777 168.604 5.73067V7.46673C168.604 7.60175 168.585 7.67891 168.546 7.70784C168.508 7.73678 168.44 7.76571 168.354 7.80429C167.997 7.88145 167.466 7.93932 166.752 7.96825C166.039 8.00683 165.238 8.03576 164.341 8.05505C163.444 8.07434 162.499 8.08399 161.506 8.09364C160.512 8.10328 159.557 8.10328 158.641 8.10328H158.497L158.583 10.717C158.603 11.2378 158.612 11.7683 158.612 12.2891C158.612 12.8099 158.612 13.35 158.612 13.8901C159.046 13.8709 159.49 13.8612 159.943 13.8612C160.406 13.8612 160.869 13.8516 161.332 13.8323C162.027 13.8323 162.721 13.8323 163.425 13.8323C164.129 13.8323 164.785 13.8419 165.402 13.8612C166.019 13.8805 166.579 13.8998 167.071 13.9287C167.563 13.9577 167.968 13.9962 168.267 14.0541C168.489 14.0927 168.604 14.2084 168.604 14.4206V16.1277C168.604 16.2628 168.585 16.3399 168.546 16.3785C168.527 16.4171 168.46 16.4653 168.363 16.5232Z" fill="#087CFA"/>
<path d="M184.916 28.0878C184.752 27.9527 184.511 27.7213 184.202 27.3837C183.894 27.0461 183.566 26.6507 183.209 26.207C183.17 26.1299 183.122 26.0624 183.055 25.9949C182.987 25.9273 182.939 25.8695 182.9 25.8116L182.649 25.8695C182.196 25.9659 181.733 26.0431 181.261 26.1202C180.788 26.1974 180.306 26.236 179.814 26.236H179.756C178.763 26.236 177.798 26.1299 176.853 25.9273C175.908 25.7248 175.03 25.3969 174.23 24.9436C173.429 24.4903 172.735 23.9405 172.156 23.2847C171.577 22.6288 171.105 21.9055 170.748 21.1242C170.391 20.343 170.121 19.4943 169.947 18.5877C169.774 17.6811 169.677 16.7359 169.677 15.7714C169.677 14.7973 169.774 13.8521 169.976 12.9262C170.169 12.0003 170.468 11.1419 170.864 10.3414C171.259 9.55051 171.732 8.82715 172.291 8.18095C172.85 7.53475 173.497 7.02358 174.23 6.64744C175.011 6.23271 175.888 5.92408 176.843 5.72154C177.798 5.519 178.772 5.4129 179.766 5.4129H179.852C180.846 5.4129 181.81 5.50935 182.756 5.6926C183.701 5.87585 184.578 6.19413 185.379 6.64744C186.093 7.02358 186.729 7.53475 187.298 8.18095C187.867 8.82715 188.35 9.55051 188.726 10.3414C189.111 11.1323 189.401 12.0003 189.613 12.9262C189.816 13.8521 189.922 14.8069 189.922 15.7714C189.922 17.7582 189.536 19.5136 188.774 21.0471C188.234 22.1466 187.501 23.0821 186.585 23.8537C186.72 24.0755 186.845 24.2877 186.98 24.4806C187.115 24.6735 187.221 24.8761 187.318 25.0882C187.539 25.5223 187.694 25.8598 187.771 26.1299C187.829 26.2456 187.723 26.3903 187.462 26.5832L185.437 28.0395C185.176 28.1167 185.012 28.136 184.916 28.0878ZM184.521 19.5521C184.935 18.4333 185.138 17.1699 185.138 15.7617C185.138 15.0673 185.061 14.3825 184.916 13.7171C184.762 13.0419 184.559 12.4247 184.289 11.8556C184.019 11.2866 183.71 10.7754 183.363 10.3221C183.016 9.86879 182.649 9.53122 182.254 9.28046C181.454 8.79822 180.624 8.54745 179.785 8.54745C178.946 8.54745 178.116 8.78857 177.316 9.28046C176.901 9.52158 176.535 9.86879 176.226 10.3221C175.908 10.7754 175.628 11.2769 175.397 11.8556C175.165 12.4247 174.982 13.0516 174.866 13.7171C174.741 14.3922 174.683 15.077 174.683 15.7617C174.683 17.1795 174.934 18.4526 175.426 19.5811C175.917 20.6999 176.573 21.51 177.374 21.9923C177.769 22.2141 178.165 22.3974 178.57 22.542C178.975 22.6867 179.38 22.7542 179.795 22.7542C180.055 22.7542 180.364 22.7156 180.721 22.6385L180.248 21.8765C180.132 21.674 180.045 21.4811 179.968 21.3171C179.891 21.1532 179.833 21.0181 179.804 20.9217C179.785 20.8638 179.901 20.7481 180.142 20.5552L182.158 19.1278C182.418 18.9445 182.592 18.8963 182.659 18.9831C182.9 19.1374 183.161 19.3689 183.44 19.6872C183.537 19.7836 183.633 19.8994 183.749 20.0344C183.865 20.1791 183.98 20.3141 184.115 20.4395C184.289 20.1501 184.434 19.8511 184.521 19.5521Z" fill="url(#paint10_linear_2_396)"/>
<path d="M206.455 7.00417C206.358 6.57015 206.117 6.35797 205.722 6.35797H202.799C202.597 6.35797 202.414 6.39655 202.25 6.47371C202.086 6.55086 202.009 6.67625 202.009 6.86914C201.951 8.02652 201.922 9.1646 201.922 10.2641C201.922 11.3636 201.922 12.4535 201.912 13.5337C201.902 14.6139 201.883 15.6845 201.854 16.7647C201.825 17.8449 201.748 18.9251 201.613 20.0053C201.536 20.6805 201.247 21.2495 200.726 21.7317C200.215 22.2043 199.491 22.4455 198.575 22.4455H198.488H198.459C197.543 22.4455 196.829 22.2043 196.308 21.7317C195.797 21.2591 195.489 20.6805 195.392 20.0053C195.276 18.9251 195.199 17.8352 195.151 16.7647C195.103 15.6845 195.074 14.6139 195.064 13.5337C195.055 12.4535 195.055 11.3636 195.055 10.2641C195.055 9.1646 195.035 8.02652 194.997 6.86914C194.997 6.68589 194.92 6.55086 194.775 6.47371C194.621 6.39655 194.447 6.35797 194.245 6.35797H191.322C190.927 6.35797 190.686 6.57015 190.589 7.00417C190.493 8.75952 190.435 10.3702 190.406 11.8169C190.377 13.2636 190.377 14.585 190.396 15.7616C190.416 16.9383 190.473 17.9896 190.56 18.9155C190.657 19.8414 190.782 20.6612 190.956 21.3749C191.11 22.05 191.419 22.648 191.882 23.1881C192.344 23.7186 192.933 24.1719 193.618 24.5384C194.312 24.9049 195.074 25.1846 195.923 25.3775C196.762 25.5704 197.62 25.6765 198.479 25.6765C199.376 25.6765 200.244 25.58 201.092 25.3775C201.931 25.1846 202.703 24.9049 203.397 24.5384C204.092 24.1719 204.671 23.7282 205.133 23.1881C205.596 22.6576 205.905 22.05 206.059 21.3749C206.358 19.9185 206.532 18.0474 206.59 15.7616C206.677 13.4758 206.619 10.5631 206.455 7.00417Z" fill="url(#paint11_linear_2_396)"/>
<path d="M221.79 16.5232C221.433 16.581 220.902 16.6293 220.189 16.6678C219.475 16.7064 218.675 16.7354 217.778 16.7546C216.881 16.7739 215.935 16.7932 214.942 16.8125C213.949 16.8318 212.994 16.8414 212.078 16.8414H212.049L211.962 20.1014L211.817 22.5704H212.097C213.032 22.5704 214.006 22.5704 215.019 22.5608C216.032 22.5512 217.006 22.5512 217.951 22.5608C218.896 22.5704 219.755 22.5801 220.517 22.5994C221.288 22.6187 221.886 22.6669 222.311 22.744C222.513 22.7633 222.619 22.8887 222.619 23.1106L222.648 24.8755C222.648 25.0299 222.542 25.136 222.34 25.2131C221.867 25.2903 221.124 25.3578 220.092 25.406C219.06 25.4639 217.922 25.5025 216.678 25.5314C215.434 25.5603 214.18 25.57 212.907 25.5603C211.634 25.5507 210.534 25.5121 209.599 25.4349L208.142 25.3481H207.998C207.544 25.3481 207.303 25.0877 207.265 24.5669C207.188 22.9177 207.139 21.4324 207.12 20.0917C207.101 18.7511 207.101 17.4008 207.11 16.0409C207.12 14.6714 207.149 13.215 207.207 11.6622C207.265 10.1094 207.332 8.29618 207.4 6.2129C207.516 5.73067 207.757 5.4799 208.133 5.4799H208.22C208.374 5.46061 208.567 5.45097 208.827 5.44132C209.078 5.43168 209.348 5.40274 209.628 5.34487C210.467 5.28701 211.48 5.23878 212.656 5.2002C213.833 5.16162 215.01 5.14233 216.177 5.14233C217.344 5.14233 218.433 5.16162 219.436 5.2002C220.44 5.23878 221.192 5.29665 221.693 5.36416C221.915 5.42203 222.031 5.53777 222.031 5.73067V7.46673C222.031 7.60175 222.012 7.67891 221.973 7.70784C221.934 7.73678 221.867 7.76571 221.78 7.80429C221.423 7.88145 220.893 7.93932 220.179 7.96825C219.465 8.00683 218.665 8.03576 217.768 8.05505C216.871 8.07434 215.926 8.08399 214.932 8.09364C213.939 8.10328 212.984 8.10328 212.068 8.10328H211.923L212.01 10.717C212.029 11.2378 212.039 11.7683 212.039 12.2891C212.039 12.8099 212.039 13.35 212.039 13.8901C212.473 13.8709 212.917 13.8612 213.37 13.8612C213.833 13.8612 214.296 13.8516 214.759 13.8323C215.453 13.8323 216.148 13.8323 216.852 13.8323C217.556 13.8323 218.212 13.8419 218.829 13.8612C219.446 13.8805 220.006 13.8998 220.497 13.9287C220.989 13.9577 221.394 13.9962 221.693 14.0541C221.915 14.0927 222.031 14.2084 222.031 14.4206V16.1277C222.031 16.2628 222.012 16.3399 221.973 16.3785C221.944 16.4171 221.877 16.4653 221.79 16.5232Z" fill="url(#paint12_linear_2_396)"/>
<path d="M225.336 19.7464C225.654 19.6113 225.867 19.6789 225.982 19.9393C226.281 20.5372 226.667 21.0291 227.149 21.4149C227.622 21.8007 228.124 22.09 228.654 22.2829C229.175 22.4758 229.715 22.5819 230.255 22.5819C230.795 22.5819 231.297 22.4855 231.74 22.2829C232.194 22.09 232.55 21.8007 232.83 21.4246C233.11 21.0484 233.283 20.5758 233.332 19.9971C233.351 19.621 233.303 19.2931 233.187 19.0134C233.071 18.7337 232.83 18.4443 232.444 18.1453C232.059 17.8463 231.509 17.5281 230.805 17.1905C230.091 16.8529 229.136 16.4479 227.94 15.9849C226.821 15.5316 225.973 14.9626 225.413 14.2681C224.854 13.5737 224.574 12.6092 224.574 11.3747C224.574 10.2945 224.815 9.36859 225.288 8.60665C225.761 7.84471 226.368 7.23709 227.111 6.78379C227.853 6.32084 228.683 6.01221 229.609 5.84825C230.535 5.68428 231.451 5.64571 232.358 5.73251C233.264 5.82896 234.113 6.05079 234.894 6.41729C235.675 6.78379 236.302 7.26603 236.775 7.864L236.997 8.20157C237.055 8.25944 237.064 8.35589 237.026 8.48127L235.762 9.8026C235.685 9.91834 235.579 10.0051 235.444 10.0727C235.299 10.1402 235.183 10.1209 235.097 10.0341C234.798 9.61935 234.306 9.27214 233.621 8.99244C232.936 8.71274 232.251 8.57772 231.557 8.58736C230.863 8.59701 230.255 8.7899 229.715 9.16605C229.184 9.54219 228.914 10.1691 228.914 11.0468C228.914 11.5194 229.098 11.9245 229.464 12.2813C229.831 12.6382 230.4 12.9854 231.191 13.3229C231.808 13.6219 232.541 13.9113 233.39 14.1813C234.238 14.4514 235.058 14.8275 235.83 15.3194C236.601 15.8017 237.238 16.4382 237.72 17.2291C238.202 18.0103 238.414 19.0423 238.337 20.3154C238.26 21.4149 237.903 22.3697 237.257 23.1606C236.611 23.9515 235.81 24.5784 234.856 25.0317C233.901 25.485 232.849 25.7454 231.711 25.8129C230.573 25.8901 229.454 25.7647 228.374 25.4368C227.284 25.1089 226.301 24.5688 225.413 23.8261C224.526 23.0738 223.851 22.0997 223.407 20.8748C223.291 20.5758 223.369 20.3926 223.629 20.3154L225.336 19.7464Z" fill="url(#paint13_linear_2_396)"/>
<path d="M255.167 8.51923C254.752 8.5771 254.125 8.61568 253.286 8.64461C252.447 8.67355 251.502 8.70248 250.45 8.74106C250.287 8.74106 250.132 8.74106 249.988 8.74106C249.843 8.74106 249.689 8.76035 249.525 8.79893C249.602 9.99488 249.65 11.2101 249.669 12.435C249.689 13.6599 249.689 14.9234 249.669 16.2061C249.65 17.6818 249.621 19.1188 249.573 20.498C249.525 21.8869 249.447 23.2564 249.332 24.626C249.312 25.0986 249.081 25.3301 248.628 25.3301H245.618C245.416 25.3301 245.242 25.2626 245.117 25.1372C244.982 25.0021 244.914 24.8382 244.895 24.6356C244.856 23.4976 244.828 22.4366 244.799 21.4625C244.77 20.4884 244.76 19.5432 244.76 18.6173C244.76 17.6914 244.77 16.7559 244.789 15.8107C244.808 14.8655 244.837 13.8431 244.876 12.734C244.895 12.1746 244.905 11.5573 244.914 10.8918C244.924 10.2264 244.943 9.54157 244.982 8.82786H243.776C242.725 8.82786 241.78 8.80857 240.931 8.76035C240.082 8.71213 239.436 8.67354 239.012 8.63497C238.877 8.63497 238.819 8.51923 238.819 8.2974L238.79 6.53241C238.79 6.41667 238.819 6.33951 238.886 6.29129C238.954 6.24306 239.021 6.21413 239.099 6.19484C239.513 6.13697 240.121 6.0791 240.941 6.03088C241.751 5.97301 242.677 5.93443 243.709 5.9055C244.741 5.87656 245.821 5.85727 246.949 5.84763C248.078 5.83798 249.168 5.83798 250.219 5.84763C251.27 5.85727 252.225 5.87656 253.093 5.9055C253.961 5.93443 254.636 5.98265 255.128 6.05981C255.369 6.09839 255.495 6.22377 255.495 6.42631V8.14308C255.495 8.27811 255.475 8.35527 255.427 8.39385C255.35 8.42278 255.273 8.47101 255.167 8.51923Z" fill="url(#paint14_linear_2_396)"/>
<path d="M107.495 39.9409V50.1227H105.034V39.9409H107.495ZM112.803 50.1227H109.04V39.9409H112.798C113.836 39.9409 114.729 40.1448 115.478 40.5524C116.23 40.9568 116.81 41.5401 117.218 42.3024C117.626 43.0614 117.829 43.9696 117.829 45.0269C117.829 46.0875 117.626 46.9989 117.218 47.7612C116.814 48.5235 116.235 49.1085 115.483 49.5162C114.73 49.9206 113.837 50.1227 112.803 50.1227ZM111.501 48.0247H112.709C113.279 48.0247 113.761 47.9286 114.155 47.7364C114.553 47.5408 114.853 47.2243 115.055 46.7868C115.261 46.346 115.364 45.7593 115.364 45.0269C115.364 44.2944 115.261 43.711 115.055 43.2769C114.85 42.8394 114.547 42.5245 114.145 42.3323C113.748 42.1367 113.257 42.0389 112.674 42.0389H111.501V48.0247ZM119.266 50.1227V39.9409H126.366V41.9395H121.727V44.0276H126.003V46.0311H121.727V48.1242H126.366V50.1227H119.266ZM130.109 50.1227H127.464L130.9 39.9409H134.176L137.611 50.1227H134.966L132.575 42.5063H132.496L130.109 50.1227ZM129.756 46.1156H135.285V47.985H129.756V46.1156ZM142.163 40.6727H153.741V47.7007H151.977V42.3247H143.857V47.7707H142.163V40.6727ZM143.045 45.3347H152.957V46.9867H143.045V45.3347ZM147.021 38.2367H148.799V51.3827H147.021V38.2367ZM156.947 40.5047H161.245V49.9407H156.947V48.4567H159.719V41.9747H156.947V40.5047ZM155.967 40.5047H157.493V50.9767H155.967V40.5047ZM156.877 44.2427H160.461V45.6987H156.877V44.2427ZM157.955 38.2227L159.789 38.4887C159.467 39.4407 159.117 40.4347 158.837 41.0927L157.493 40.7987C157.689 40.0707 157.885 38.9927 157.955 38.2227ZM163.093 40.4067H167.181V41.9327H163.093V40.4067ZM166.607 40.4067H168.161C168.161 40.4067 168.161 40.9527 168.147 41.1627C167.965 47.4627 167.797 49.6887 167.223 50.4307C166.831 50.9767 166.439 51.1307 165.865 51.2147C165.333 51.2987 164.479 51.2847 163.667 51.2427C163.639 50.7807 163.415 50.0667 163.107 49.6187C164.017 49.6887 164.857 49.7027 165.207 49.7027C165.487 49.7027 165.641 49.6467 165.823 49.4507C166.271 48.9747 166.453 46.5667 166.607 40.7287V40.4067ZM163.135 38.2367L164.745 38.6147C164.199 40.6867 163.289 42.8147 162.337 44.1587C162.029 43.8787 161.343 43.4027 160.951 43.1787C161.889 42.0027 162.687 40.0987 163.135 38.2367ZM162.449 44.4387L163.765 43.6967C164.451 44.6627 165.375 46.0067 165.809 46.8327L164.381 47.7007C164.003 46.8467 163.121 45.4747 162.449 44.4387ZM174.926 50.1227H172.281L175.716 39.9409H178.992L182.428 50.1227H179.783L177.392 42.5063H177.312L174.926 50.1227ZM174.573 46.1156H180.101V47.985H174.573V46.1156ZM183.524 50.1227V39.9409H187.73C188.492 39.9409 189.15 40.0901 189.704 40.3884C190.261 40.6833 190.69 41.096 190.991 41.6263C191.293 42.1533 191.444 42.7664 191.444 43.4658C191.444 44.1684 191.29 44.7833 190.981 45.3102C190.676 45.8339 190.241 46.2399 189.674 46.5283C189.107 46.8166 188.434 46.9608 187.655 46.9608H185.06V45.0219H187.198C187.569 45.0219 187.879 44.9573 188.128 44.828C188.38 44.6987 188.57 44.5181 188.699 44.2861C188.829 44.0508 188.893 43.7773 188.893 43.4658C188.893 43.1509 188.829 42.8791 188.699 42.6504C188.57 42.4184 188.38 42.2395 188.128 42.1135C187.876 41.9876 187.566 41.9246 187.198 41.9246H185.985V50.1227H183.524ZM195.118 39.9409V50.1227H192.657V39.9409H195.118ZM204.108 38.7407H205.564V44.1867C205.564 46.3847 205.354 49.4787 204.024 51.3827C203.772 51.1167 203.156 50.6407 202.834 50.4587C204.01 48.7367 204.108 46.1747 204.108 44.1867V38.7407ZM204.962 38.7407H211.206V40.2107H204.962V38.7407ZM210.478 38.7407H211.948V49.6327C211.948 50.3747 211.822 50.8087 211.36 51.0887C210.898 51.3407 210.268 51.3687 209.302 51.3687C209.246 50.9487 209.022 50.2487 208.812 49.8427C209.4 49.8847 210.016 49.8847 210.212 49.8707C210.408 49.8707 210.478 49.8007 210.478 49.6047V38.7407ZM206.208 41.4007H209.848V42.5907H206.208V41.4007ZM205.956 43.5427H210.128V44.7187H205.956V43.5427ZM207.342 40.4767H208.644V44.4107H207.342V40.4767ZM206.768 45.5727H209.848V49.0587H206.768V47.8827H208.616V46.7347H206.768V45.5727ZM206.054 45.5727H207.272V49.6887H206.054V45.5727ZM200.02 39.4547L201.084 38.4327C201.868 39.0487 202.89 39.9587 203.366 40.5747L202.204 41.7367C201.77 41.0927 200.79 40.1267 200.02 39.4547ZM201.182 51.1307L200.79 49.6327L201.07 49.1147L203.408 47.1127C203.562 47.5607 203.856 48.2047 204.052 48.5127C201.84 50.4447 201.406 50.8227 201.182 51.1307ZM199.376 42.5487H201.91V44.1587H199.376V42.5487ZM201.182 51.1307C201 50.8227 200.454 50.2767 200.16 50.0527C200.524 49.7447 201.042 49.0727 201.042 48.2047V42.5487H202.666V49.0027C202.666 49.0027 201.182 50.5007 201.182 51.1307ZM214.244 39.4407L215.336 38.4187C216.092 39.0347 217.1 39.9167 217.562 40.5187L216.414 41.6807C215.98 41.0507 215 40.0987 214.244 39.4407ZM215.266 51.1447L214.958 49.7027L215.35 49.1847L218.066 47.4627C218.164 47.9107 218.346 48.5687 218.5 48.9047C215.994 50.5567 215.518 50.8507 215.266 51.1447ZM213.572 42.5487H216.106V44.1587H213.572V42.5487ZM217.8 40.9247H226.424V42.5207H217.8V40.9247ZM218.22 44.1307H221.958V45.6847H218.22V44.1307ZM219.368 45.1387H220.894V49.1707L219.368 49.3107V45.1387ZM217.982 49.0307C219.088 48.7787 220.726 48.3447 222.308 47.9107L222.532 49.3667C221.118 49.8007 219.62 50.2347 218.416 50.5847L217.982 49.0307ZM223.904 39.0767L225.038 38.3907C225.556 38.9647 226.144 39.7347 226.396 40.2667L225.192 41.0367C224.968 40.5047 224.408 39.6787 223.904 39.0767ZM222.112 38.3347H223.82C223.778 43.9627 224.268 49.0027 224.926 49.0307C225.108 49.0307 225.22 48.3307 225.262 47.0707C225.556 47.4207 226.312 47.8827 226.578 48.0367C226.228 50.7667 225.444 51.2987 224.856 51.2987C222.686 51.2707 222.21 46.2587 222.112 38.3347ZM215.266 51.1447C215.14 50.7387 214.748 50.0107 214.482 49.6747C214.79 49.4927 215.224 49.0307 215.224 48.4147V42.5487H216.82V49.6047C216.82 49.6047 215.266 50.5707 215.266 51.1447ZM233.592 43.3467H239.388V44.7747H233.592V43.3467ZM233.578 46.0207H239.654V47.5187H233.578V46.0207ZM235.608 38.2647H237.218V51.3687H235.608V38.2647ZM232.752 40.6307H240.186V48.0087H238.59V42.1287H234.278V48.0787H232.752V40.6307ZM227.586 40.8267H231.772V42.3387H227.586V40.8267ZM229.266 38.2507H230.904V41.5407H229.266V38.2507ZM231.058 44.1027C231.45 44.3547 232.668 45.4327 232.962 45.7127L231.982 47.0567C231.548 46.4547 230.596 45.4047 230.12 44.9007L231.058 44.1027ZM231.156 40.8267H231.492L231.772 40.7707L232.696 41.3587C231.73 44.0747 229.784 46.5527 227.852 47.8827C227.712 47.4347 227.306 46.5947 227.054 46.2867C228.804 45.2367 230.47 43.1787 231.156 41.1347V40.8267ZM229.266 45.6147L230.904 43.6407V51.3827H229.266V45.6147ZM243.938 40.0847V41.5547H245.632V40.0847H243.938ZM242.412 38.7827H247.242V42.8567H242.412V38.7827ZM250.07 40.0847V41.5547H251.764V40.0847H250.07ZM248.544 38.7827H253.374V42.8567H248.544V38.7827ZM241.53 43.6407H254.284V45.1107H241.53V43.6407ZM243.434 49.5767H246.528V50.9627H243.434V49.5767ZM249.174 49.5767H252.268V50.9627H249.174V49.5767ZM249.986 44.0187C250.868 45.3067 252.73 46.3707 254.76 46.8607C254.41 47.1687 253.948 47.7987 253.71 48.1907C251.498 47.5607 249.608 46.2727 248.432 44.5927L249.986 44.0187ZM242.65 46.6647H247.312V51.3967H245.786V48.0507H244.106V51.4107H242.65V46.6647ZM248.404 46.6647H253.094V51.3967H251.554V48.0507H249.874V51.4107H248.404V46.6647ZM246.934 42.2687L248.558 42.8147C247.34 45.4047 245.016 47.1267 242.062 48.1627C241.866 47.7987 241.376 47.1547 241.054 46.8607C243.798 45.9787 245.954 44.3967 246.934 42.2687Z" fill="white"/>
<defs>
<linearGradient id="paint0_linear_2_396" x1="26.8028" y1="56.2159" x2="26.8028" y2="49.2806" gradientUnits="userSpaceOnUse">
<stop stop-color="#EE197D"/>
<stop offset="0.0692985" stop-color="#EF247B"/>
<stop offset="0.7125" stop-color="#F38A68"/>
<stop offset="1" stop-color="#F5B361"/>
</linearGradient>
<linearGradient id="paint1_linear_2_396" x1="5.6906" y1="45.0464" x2="15.5725" y2="38.3547" gradientUnits="userSpaceOnUse">
<stop offset="0.0753616" stop-color="#6B57FF"/>
<stop offset="0.1192" stop-color="#715AF5"/>
<stop offset="0.1947" stop-color="#8063D9"/>
<stop offset="0.2925" stop-color="#9971AC"/>
<stop offset="0.409" stop-color="#BC846E"/>
<stop offset="0.5399" stop-color="#E89D20"/>
<stop offset="0.5722" stop-color="#F3A30B"/>
<stop offset="0.7385" stop-color="#F9A600"/>
</linearGradient>
<linearGradient id="paint2_linear_2_396" x1="21.7314" y1="6.49133" x2="45.8207" y2="30.1516" gradientUnits="userSpaceOnUse">
<stop stop-color="#3DEA62"/>
<stop offset="0.8132" stop-color="#21D789"/>
<stop offset="0.8316" stop-color="#1FCF93"/>
<stop offset="0.863" stop-color="#19B9AF"/>
<stop offset="0.9035" stop-color="#0F95DB"/>
<stop offset="0.9284" stop-color="#087CFA"/>
</linearGradient>
<linearGradient id="paint3_linear_2_396" x1="2.47951" y1="39.5608" x2="53.2863" y2="39.5608" gradientUnits="userSpaceOnUse">
<stop offset="0.4145" stop-color="#FFF84A"/>
<stop offset="0.5205" stop-color="#FEEE41"/>
<stop offset="0.7025" stop-color="#FCD228"/>
<stop offset="0.9362" stop-color="#F9A600"/>
</linearGradient>
<linearGradient id="paint4_linear_2_396" x1="8.63132" y1="49.8336" x2="54.8217" y2="30.8725" gradientUnits="userSpaceOnUse">
<stop stop-color="#5E5CFE"/>
<stop offset="0.3171" stop-color="#087CFA"/>
<stop offset="0.7238" stop-color="#087CFA"/>
<stop offset="0.772" stop-color="#0886F9"/>
<stop offset="0.8544" stop-color="#07A2F6"/>
<stop offset="0.9362" stop-color="#07C3F2"/>
</linearGradient>
<linearGradient id="paint5_linear_2_396" x1="3.63569" y1="33.3176" x2="32.2931" y2="7.32103" gradientUnits="userSpaceOnUse">
<stop stop-color="#FCF84A"/>
<stop offset="0.4317" stop-color="#3DEA62"/>
<stop offset="0.7591" stop-color="#3DEA62"/>
<stop offset="1" stop-color="#21D789"/>
</linearGradient>
<linearGradient id="paint6_linear_2_396" x1="61.2659" y1="15.2286" x2="76.1875" y2="15.2286" gradientUnits="userSpaceOnUse">
<stop stop-color="#EE197D"/>
<stop offset="0.0692985" stop-color="#EF247B"/>
<stop offset="0.7125" stop-color="#F38A68"/>
<stop offset="1" stop-color="#F5B361"/>
</linearGradient>
<linearGradient id="paint7_linear_2_396" x1="76.7895" y1="15.3204" x2="95.5648" y2="15.3204" gradientUnits="userSpaceOnUse">
<stop stop-color="#FCF84A"/>
<stop offset="0.4317" stop-color="#3DEA62"/>
<stop offset="0.7591" stop-color="#3DEA62"/>
<stop offset="1" stop-color="#21D789"/>
</linearGradient>
<linearGradient id="paint8_linear_2_396" x1="96.3164" y1="15.7635" x2="111.313" y2="15.7635" gradientUnits="userSpaceOnUse">
<stop stop-color="#3DEA62"/>
<stop offset="0.4006" stop-color="#21D789"/>
<stop offset="0.4845" stop-color="#1FCF93"/>
<stop offset="0.6286" stop-color="#19B9AF"/>
<stop offset="0.8142" stop-color="#0F95DB"/>
<stop offset="0.9284" stop-color="#087CFA"/>
</linearGradient>
<linearGradient id="paint9_linear_2_396" x1="111.678" y1="15.5844" x2="128.376" y2="15.5844" gradientUnits="userSpaceOnUse">
<stop offset="0.1281" stop-color="#07C3F2"/>
<stop offset="1" stop-color="#087CFA"/>
</linearGradient>
<linearGradient id="paint10_linear_2_396" x1="169.677" y1="16.7608" x2="189.912" y2="16.7608" gradientUnits="userSpaceOnUse">
<stop stop-color="#087CFA"/>
<stop offset="1" stop-color="#5E5CFE"/>
</linearGradient>
<linearGradient id="paint11_linear_2_396" x1="190.417" y1="16.0152" x2="206.643" y2="16.0152" gradientUnits="userSpaceOnUse">
<stop stop-color="#6B57FF"/>
<stop offset="1" stop-color="#087CFA"/>
</linearGradient>
<linearGradient id="paint12_linear_2_396" x1="207.118" y1="15.336" x2="222.657" y2="15.336" gradientUnits="userSpaceOnUse">
<stop stop-color="#087CFA"/>
<stop offset="0.5536" stop-color="#21D789"/>
<stop offset="0.6867" stop-color="#28DC7F"/>
<stop offset="0.9146" stop-color="#3CE963"/>
<stop offset="0.9246" stop-color="#3DEA62"/>
</linearGradient>
<linearGradient id="paint13_linear_2_396" x1="223.379" y1="15.7635" x2="238.376" y2="15.7635" gradientUnits="userSpaceOnUse">
<stop stop-color="#21D789"/>
<stop offset="0.5266" stop-color="#3DEA62"/>
<stop offset="0.8918" stop-color="#FCF84A"/>
<stop offset="1" stop-color="#FCF84A"/>
</linearGradient>
<linearGradient id="paint14_linear_2_396" x1="238.772" y1="15.5844" x2="255.471" y2="15.5844" gradientUnits="userSpaceOnUse">
<stop stop-color="#FFF84A"/>
<stop offset="0.2614" stop-color="#FDDF34"/>
<stop offset="0.749" stop-color="#FAB60E"/>
<stop offset="1" stop-color="#F9A600"/>
</linearGradient>
</defs>
</svg>
